<svg width="20" height="20" viewBox="0 0 20 20" fill="none" xmlns="http://www.w3.org/2000/svg">
<g id="Group">
<path id="Vector" d="M19.8738 8.28418L19.4002 9.44685C19.2506 9.84265 19.2506 10.2632 19.4002 10.659L19.8738 11.8217C20.148 12.5143 19.9237 13.3059 19.3005 13.7512L18.2535 14.4686C17.9045 14.716 17.6802 15.087 17.5805 15.4828L17.3561 16.7197C17.2065 17.4618 16.5833 18.0061 15.8355 18.0308L14.5642 18.0803C14.1404 18.105 13.7415 18.2782 13.4424 18.575L12.5699 19.4903C12.0464 20.0346 11.2238 20.1583 10.5757 19.7872L9.47886 19.144C9.10494 18.9214 8.68117 18.8719 8.25739 18.9708L7.01099 19.2677C6.28808 19.4409 5.51532 19.0945 5.16632 18.4266L4.59298 17.2887C4.39356 16.9176 4.06949 16.6208 3.67064 16.4971L2.4741 16.1013C1.75119 15.8539 1.30249 15.1612 1.37727 14.4191L1.50191 13.1575C1.55177 12.737 1.42713 12.3164 1.15292 11.9948L0.355224 11.0053C-0.118408 10.4116 -0.118408 9.59528 0.355224 9.00157L1.15292 8.01207C1.42713 7.69048 1.55177 7.26994 1.50191 6.8494L1.37727 5.58778C1.30249 4.84565 1.75119 4.15299 2.4741 3.90562L3.67064 3.50982C4.06949 3.38613 4.39356 3.08928 4.59298 2.71821L5.16632 1.58028C5.51532 0.912364 6.26316 0.566036 7.01099 0.7392L8.25739 1.03605C8.65624 1.135 9.10494 1.08553 9.47886 0.862888L10.5757 0.219709C11.2238 -0.151355 12.0464 -0.0524049 12.5699 0.516561L13.4424 1.43185C13.7415 1.72871 14.1404 1.92661 14.5642 1.92661L15.8355 1.97608C16.5833 2.00082 17.2315 2.54505 17.3561 3.28718L17.5805 4.52406C17.6552 4.9446 17.9045 5.31566 18.2535 5.5383L19.3005 6.25569C19.9237 6.79992 20.173 7.59153 19.8738 8.28418Z" fill="#00D566"/>
<g id="Group_2" opacity="0.15">
<path id="Vector_2" d="M15.2616 17.9816C15.1369 17.9816 15.0123 18.0063 14.9126 18.0311L15.81 17.9816C15.9346 17.9816 16.0344 17.9569 16.159 17.9321L15.2616 17.9816Z" fill="black"/>
</g>
<path id="Vector_3" d="M8.37084 14C8.02185 14 7.67286 13.8436 7.42358 13.5569L4.30758 9.82947C3.85888 9.28209 3.90873 8.47405 4.40729 7.9788C4.93078 7.50961 5.70355 7.56175 6.17718 8.08306L8.52041 10.8721L13.9796 6.28452C14.5031 5.8414 15.3008 5.9196 15.7246 6.49305C16.1484 7.0665 16.0736 7.87454 15.5252 8.31765L9.14361 13.7133C8.91925 13.8957 8.64505 14 8.37084 14Z" fill="white"/>
</g>
</svg>
