<svg xmlns="http://www.w3.org/2000/svg" width="38" height="38" viewBox="0 0 38 38" fill="none">
  <g filter="url(#filter0_d_1490_2822)">
    <path d="M19 34C27.2843 34 34 27.2843 34 19C34 10.7157 27.2843 4 19 4C10.7157 4 4 10.7157 4 19C4 27.2843 10.7157 34 19 34Z" fill="white"/>
  </g> 
  <path d="M11 17.538V11.784C10.9992 11.6817 11.0186 11.5803 11.057 11.4856C11.0955 11.3908 11.1522 11.3046 11.224 11.2318C11.2958 11.1589 11.3812 11.101 11.4754 11.0612C11.5696 11.0215 11.6708 11.0007 11.773 11H27.227C27.3293 11.0007 27.4304 11.0215 27.5246 11.0612C27.6188 11.101 27.7043 11.1589 27.776 11.2318C27.8478 11.3046 27.9046 11.3908 27.943 11.4856C27.9814 11.5803 28.0008 11.6817 28 11.784V17.537C28 25.77 21.113 28.495 19.741 28.956C19.5853 29.0146 19.4137 29.0146 19.258 28.956C17.887 28.5 11 25.771 11 17.538Z" stroke="#0075CB" stroke-width="1.5" stroke-linecap="round" stroke-linejoin="round"/>
  <path d="M23.6875 16.4893L18.1015 21.9783L15.3125 19.2333" stroke="#0075CB" stroke-width="1.5" stroke-linecap="round" stroke-linejoin="round"/>
  <defs>
    <filter id="filter0_d_1490_2822" x="0" y="0" width="38" height="38" filterUnits="userSpaceOnUse" color-interpolation-filters="sRGB">
      <feFlood flood-opacity="0" result="BackgroundImageFix"/>
      <feColorMatrix in="SourceAlpha" type="matrix" values="0 0 0 0 0 0 0 0 0 0 0 0 0 0 0 0 0 0 127 0" result="hardAlpha"/>
      <feOffset/>
      <feGaussianBlur stdDeviation="2"/>
      <feComposite in2="hardAlpha" operator="out"/>
      <feColorMatrix type="matrix" values="0 0 0 0 0.980392 0 0 0 0 0.52549 0 0 0 0 0.509804 0 0 0 0.5 0"/>
      <feBlend mode="normal" in2="BackgroundImageFix" result="effect1_dropShadow_1490_2822"/>
      <feBlend mode="normal" in="SourceGraphic" in2="effect1_dropShadow_1490_2822" result="shape"/>
    </filter>
  </defs>
</svg>