<svg xmlns="http://www.w3.org/2000/svg" width="38" height="38" viewBox="0 0 38 38" fill="none">
  <g filter="url(#filter0_d_1490_2828)">
    <path d="M19 34C27.2843 34 34 27.2843 34 19C34 10.7157 27.2843 4 19 4C10.7157 4 4 10.7157 4 19C4 27.2843 10.7157 34 19 34Z" fill="white"/>
  </g>
  <path d="M24.9 10H13.5C13.1022 10 12.7206 10.158 12.4393 10.4393C12.158 10.7206 12 11.1022 12 11.5V27.1C12 27.3387 12.0948 27.5676 12.2636 27.7364C12.4324 27.9052 12.6613 28 12.9 28H23.1C23.3387 28 23.5676 27.9052 23.7364 27.7364C23.9052 27.5676 24 27.3387 24 27.1V21.4H25.5C25.7387 21.4 25.9676 21.3052 26.1364 21.1364C26.3052 20.9676 26.4 20.7387 26.4 20.5V11.5C26.4 11.1022 26.242 10.7206 25.9607 10.4393C25.6794 10.158 25.2978 10 24.9 10ZM23.4 21.4V27.1C23.4 27.1796 23.3684 27.2559 23.3121 27.3121C23.2559 27.3684 23.1796 27.4 23.1 27.4H12.9C12.8204 27.4 12.7441 27.3684 12.6879 27.3121C12.6316 27.2559 12.6 27.1796 12.6 27.1V13.844L13.25 14.255L14.2 13.655L15.15 14.255L16.1 13.655L17.05 14.255L18 13.655L18.95 14.255L19.9 13.655L20.85 14.255L21.8 13.655L22.75 14.255L23.4 13.844V21.4ZM23.4 13.135L22.75 13.546L21.8 12.946L20.85 13.546L19.9 12.946L18.95 13.546L18 12.946L17.05 13.546L16.1 12.946L15.15 13.546L14.2 12.946L13.25 13.546L12.6 13.135V12.4H23.4V13.135ZM23.4 11.5V11.8H12.6V11.5C12.6 11.3818 12.6233 11.2648 12.6685 11.1556C12.7137 11.0464 12.78 10.9472 12.8636 10.8636C12.9472 10.78 13.0464 10.7137 13.1556 10.6685C13.2648 10.6233 13.3818 10.6 13.5 10.6H23.7C23.5047 10.8594 23.3994 11.1754 23.4 11.5ZM25.8 20.5C25.8 20.5796 25.7684 20.6559 25.7121 20.7121C25.6559 20.7684 25.5796 20.8 25.5 20.8H24V11.5C24 11.2613 24.0948 11.0324 24.2636 10.8636C24.4324 10.6948 24.6613 10.6 24.9 10.6C25.1387 10.6 25.3676 10.6948 25.5364 10.8636C25.7052 11.0324 25.8 11.2613 25.8 11.5V20.5Z" fill="#0075CB"/>
  <path d="M14.6992 15.1001H14.0992C13.8605 15.1001 13.6316 15.1949 13.4628 15.3637C13.294 15.5325 13.1992 15.7614 13.1992 16.0001V16.6001C13.1992 16.8388 13.294 17.0677 13.4628 17.2365C13.6316 17.4053 13.8605 17.5001 14.0992 17.5001H14.6992C14.9379 17.5001 15.1668 17.4053 15.3356 17.2365C15.5044 17.0677 15.5992 16.8388 15.5992 16.6001V16.0001C15.5992 15.7614 15.5044 15.5325 15.3356 15.3637C15.1668 15.1949 14.9379 15.1001 14.6992 15.1001ZM14.9992 16.6001C14.9992 16.6395 14.9915 16.6785 14.9764 16.7149C14.9613 16.7513 14.9392 16.7844 14.9114 16.8122C14.8835 16.8401 14.8504 16.8622 14.814 16.8773C14.7776 16.8923 14.7386 16.9001 14.6992 16.9001H14.0992C14.0598 16.9001 14.0208 16.8923 13.9844 16.8773C13.948 16.8622 13.9149 16.8401 13.8871 16.8122C13.8592 16.7844 13.8371 16.7513 13.8221 16.7149C13.807 16.6785 13.7992 16.6395 13.7992 16.6001V16.0001C13.7992 15.9205 13.8308 15.8442 13.8871 15.788C13.9433 15.7317 14.0197 15.7001 14.0992 15.7001H14.6992C14.7788 15.7001 14.8551 15.7317 14.9114 15.788C14.9676 15.8442 14.9992 15.9205 14.9992 16.0001V16.6001Z" fill="#0075CB"/>
  <path d="M14.6992 18.1001H14.0992C13.8605 18.1001 13.6316 18.1949 13.4628 18.3637C13.294 18.5325 13.1992 18.7614 13.1992 19.0001V19.6001C13.1992 19.8388 13.294 20.0677 13.4628 20.2365C13.6316 20.4053 13.8605 20.5001 14.0992 20.5001H14.6992C14.9379 20.5001 15.1668 20.4053 15.3356 20.2365C15.5044 20.0677 15.5992 19.8388 15.5992 19.6001V19.0001C15.5992 18.7614 15.5044 18.5325 15.3356 18.3637C15.1668 18.1949 14.9379 18.1001 14.6992 18.1001ZM14.9992 19.6001C14.9992 19.6797 14.9676 19.756 14.9114 19.8122C14.8551 19.8685 14.7788 19.9001 14.6992 19.9001H14.0992C14.0197 19.9001 13.9433 19.8685 13.8871 19.8122C13.8308 19.756 13.7992 19.6797 13.7992 19.6001V19.0001C13.7992 18.9205 13.8308 18.8442 13.8871 18.788C13.9433 18.7317 14.0197 18.7001 14.0992 18.7001H14.6992C14.7788 18.7001 14.8551 18.7317 14.9114 18.788C14.9676 18.8442 14.9992 18.9205 14.9992 19.0001V19.6001Z" fill="#0075CB"/>
  <path d="M20.1603 19H16.3203V19.96H20.1603V19Z" fill="#0075CB"/>
  <path d="M14.6992 21.1001H14.0992C13.8605 21.1001 13.6316 21.1949 13.4628 21.3637C13.294 21.5325 13.1992 21.7614 13.1992 22.0001V22.6001C13.1992 22.8388 13.294 23.0677 13.4628 23.2365C13.6316 23.4053 13.8605 23.5001 14.0992 23.5001H14.6992C14.9379 23.5001 15.1668 23.4053 15.3356 23.2365C15.5044 23.0677 15.5992 22.8388 15.5992 22.6001V22.0001C15.5992 21.7614 15.5044 21.5325 15.3356 21.3637C15.1668 21.1949 14.9379 21.1001 14.6992 21.1001ZM14.9992 22.6001C14.9992 22.6797 14.9676 22.756 14.9114 22.8122C14.8551 22.8685 14.7788 22.9001 14.6992 22.9001H14.0992C14.0197 22.9001 13.9433 22.8685 13.8871 22.8122C13.8308 22.756 13.7992 22.6797 13.7992 22.6001V22.0001C13.7992 21.9205 13.8308 21.8442 13.8871 21.788C13.9433 21.7317 14.0197 21.7001 14.0992 21.7001H14.6992C14.7788 21.7001 14.8551 21.7317 14.9114 21.788C14.9676 21.8442 14.9992 21.9205 14.9992 22.0001V22.6001Z" fill="#0075CB"/>
  <path d="M20.1603 21.8799H16.3203V22.8399H20.1603V21.8799Z" fill="#0075CB"/>
  <path d="M14.6992 24.1001H14.0992C13.8605 24.1001 13.6316 24.1949 13.4628 24.3637C13.294 24.5325 13.1992 24.7614 13.1992 25.0001V25.6001C13.1992 25.8388 13.294 26.0677 13.4628 26.2365C13.6316 26.4053 13.8605 26.5001 14.0992 26.5001H14.6992C14.9379 26.5001 15.1668 26.4053 15.3356 26.2365C15.5044 26.0677 15.5992 25.8388 15.5992 25.6001V25.0001C15.5992 24.7614 15.5044 24.5325 15.3356 24.3637C15.1668 24.1949 14.9379 24.1001 14.6992 24.1001ZM14.9992 25.6001C14.9992 25.6797 14.9676 25.756 14.9114 25.8122C14.8551 25.8685 14.7788 25.9001 14.6992 25.9001H14.0992C14.0197 25.9001 13.9433 25.8685 13.8871 25.8122C13.8308 25.756 13.7992 25.6797 13.7992 25.6001V25.0001C13.7992 24.9607 13.807 24.9217 13.8221 24.8853C13.8371 24.8489 13.8592 24.8158 13.8871 24.788C13.9149 24.7601 13.948 24.738 13.9844 24.7229C14.0208 24.7079 14.0598 24.7001 14.0992 24.7001H14.6992C14.7386 24.7001 14.7776 24.7079 14.814 24.7229C14.8504 24.738 14.8835 24.7601 14.9114 24.788C14.9392 24.8158 14.9613 24.8489 14.9764 24.8853C14.9915 24.9217 14.9992 24.9607 14.9992 25.0001V25.6001Z" fill="#0075CB"/>
  <path d="M20.1603 24.7598H16.3203V25.7198H20.1603V24.7598Z" fill="#0075CB"/>
  <path d="M21.9 14.5C21.6613 14.5 21.4324 14.5948 21.2636 14.7636C21.0948 14.9324 21 15.1613 21 15.4V25.391L21.9 26.741L22.8 25.391V15.4C22.8 15.1613 22.7052 14.9324 22.5364 14.7636C22.3676 14.5948 22.1387 14.5 21.9 14.5ZM22.2 25.209L21.9 25.659L21.6 25.209V16.6H22.2V25.209ZM22.2 16H21.6V15.4C21.6 15.3204 21.6316 15.2441 21.6879 15.1879C21.7441 15.1316 21.8204 15.1 21.9 15.1C21.9796 15.1 22.0559 15.1316 22.1121 15.1879C22.1684 15.2441 22.2 15.3204 22.2 15.4V16Z" fill="#0075CB"/>
  <defs>
    <filter id="filter0_d_1490_2828" x="0" y="0" width="38" height="38" filterUnits="userSpaceOnUse" color-interpolation-filters="sRGB">
      <feFlood flood-opacity="0" result="BackgroundImageFix"/>
      <feColorMatrix in="SourceAlpha" type="matrix" values="0 0 0 0 0 0 0 0 0 0 0 0 0 0 0 0 0 0 127 0" result="hardAlpha"/>
      <feOffset/>
      <feGaussianBlur stdDeviation="2"/>
      <feComposite in2="hardAlpha" operator="out"/>
      <feColorMatrix type="matrix" values="0 0 0 0 0.980392 0 0 0 0 0.52549 0 0 0 0 0.509804 0 0 0 0.5 0"/>
      <feBlend mode="normal" in2="BackgroundImageFix" result="effect1_dropShadow_1490_2828"/>
      <feBlend mode="normal" in="SourceGraphic" in2="effect1_dropShadow_1490_2828" result="shape"/>
    </filter>
  </defs>
</svg>