<svg class="svg-icon" style="width: 1em; height: 1em;vertical-align: middle;fill: currentColor;overflow: hidden;" viewBox="0 0 1024 1024" version="1.1" xmlns="http://www.w3.org/2000/svg"><path d="M512 16C238.064 16 16 238.08 16 512c0 273.952 222.064 496 496 496 273.936 0 496-222.048 496-496C1008 238.08 785.936 16 512 16zM512 958.4c-246.144 0-446.4-201.024-446.4-446.896C65.6 265.632 265.856 65.6 512 65.6c246.144 0 446.4 200.032 446.4 445.904C958.4 757.376 758.144 958.4 512 958.4zM682.848 512 512 512 512 243.328c0-15.984-11.104-28.928-24.8-28.928s-24.8 12.944-24.8 28.928l0 289.344c0 0.8 0.144 1.552 0.208 2.336C462.56 535.6 462.4 536.176 462.4 536.8c0 7.664 3.952 14.448 10.032 18.992 4.128 3.6 9.216 5.808 14.768 5.808 0.416 0 0.8-0.112 1.2-0.144 0.528 0.032 1.024 0.144 1.552 0.144l192.896 0c15.216 0 27.552-11.104 27.552-24.8C710.4 523.104 698.064 512 682.848 512z"  /></svg>