<svg width="58" height="69" viewBox="0 0 58 69" fill="none" xmlns="http://www.w3.org/2000/svg">
<path d="M43.6571 65.8994H26.7224C26.7224 65.8994 25.0499 54.2023 22.7501 51.7311C18.3596 47.0357 15.4327 42.3404 10.7634 36.1623C23.9348 36.5742 31.1129 20.0993 34.8761 18.2047C35.2943 17.9576 35.7821 18.2047 36.0609 18.6165C36.1306 18.7813 36.2003 19.0284 36.2699 19.1932C36.2699 19.605 36.3396 20.0169 36.4093 20.4288C36.5487 21.9115 36.7578 23.2295 36.9668 24.6299C36.9668 24.7123 36.9668 24.7946 37.0365 24.877C37.0365 25.0418 37.1062 25.2065 37.1062 25.2889C38.9879 34.0206 38.291 37.0684 37.9425 44.3997C37.5941 50.0836 43.6571 65.8994 43.6571 65.8994Z" fill="#151886" fill-opacity="0.7"/>
<path d="M36.9668 24.63H36.7577C36.0608 24.63 35.5033 24.0534 35.5033 23.3944V19.6052C35.5033 19.1933 35.7124 18.7814 36.1305 18.6167C36.2002 18.7814 36.2699 19.0286 36.3396 19.1933C36.3396 19.6052 36.4093 20.0171 36.479 20.4289C36.479 21.9117 36.688 23.312 36.9668 24.63Z" fill="#151886" fill-opacity="0.7"/>
<path d="M9.99683 22.7354L14.8054 30.8081L19.7534 27.3483L10.4847 22.0764C10.1362 21.8293 9.78776 22.3235 9.99683 22.7354Z" fill="#151886" fill-opacity="0.7"/>
<path d="M10.4149 29.655L15.0145 37.4805C15.1538 37.6453 15.3629 37.7277 15.5023 37.6453L19.614 34.8446C19.8928 34.6798 19.8928 34.2679 19.614 34.1032L10.9028 29.0784C10.5543 28.7489 10.2059 29.2431 10.4149 29.655Z" fill="#151886" fill-opacity="0.7"/>
<path d="M31.6006 0H16.4082C14.875 0 13.6206 1.48274 13.6206 3.29498V40.6929C13.6206 42.5052 14.875 43.9879 16.4082 43.9879H31.5309C33.0641 43.9879 34.3185 42.5052 34.3185 40.6929V3.29498C34.3882 1.48274 33.1338 0 31.6006 0Z" fill="#151886" fill-opacity="0.7"/>
<path d="M32.9944 4.86023H15.0144V39.2103H32.9944V4.86023Z" fill="white" fill-opacity="0.7"/>
<path d="M26.583 2.80079H21.426C21.2169 2.80079 21.0775 2.63605 21.0775 2.38892C21.0775 2.1418 21.2169 1.97705 21.426 1.97705H26.6527C26.8618 1.97705 27.0012 2.1418 27.0012 2.38892C27.0012 2.63605 26.7921 2.80079 26.583 2.80079ZM24.0045 39.8693C23.1682 39.8693 22.4713 40.693 22.4713 41.6815C22.4713 42.67 23.1682 43.4937 24.0045 43.4937C24.8408 43.4937 25.5377 42.67 25.5377 41.6815C25.5377 40.693 24.8408 39.8693 24.0045 39.8693Z" fill="#151886" fill-opacity="0.7"/>
<path d="M13.6207 12.3562L11.3209 10.1321C10.9725 9.885 10.624 9.63788 10.2756 9.47313C8.18487 8.81413 7.2789 10.3792 7.62735 12.0267C7.76673 12.6034 8.04549 13.0976 8.39394 13.5095L13.6207 19.4404V12.3562ZM12.9238 19.6052L15.572 22.1588C16.4083 22.9825 16.5477 24.4653 15.8508 25.4538C15.1539 26.4423 13.8994 26.607 13.0632 25.7833L10.4149 23.2297C9.57867 22.4059 9.43928 20.9232 10.1362 19.9347C10.8331 18.9462 12.0875 18.7814 12.9238 19.6052ZM13.2025 26.7718L15.6417 29.1606C16.4083 29.902 16.5477 31.3023 15.9204 32.2908C15.2932 33.197 14.1085 33.3617 13.2722 32.6203L10.8331 30.2315C10.0665 29.4901 9.92711 28.0897 10.5543 27.1013C11.1815 26.1128 12.3663 25.948 13.2025 26.7718ZM13.3419 33.5265L15.4326 35.9153C16.1295 36.6567 16.1295 37.9747 15.5023 38.7984C14.8751 39.6222 13.7601 39.6222 13.0632 38.8808L10.9725 36.4919C10.2756 35.7506 10.2756 34.4326 10.9028 33.6088C11.53 32.7851 12.645 32.7851 13.3419 33.5265Z" fill="#151886" fill-opacity="0.7"/>
<path d="M13.2722 25.3712C13.8995 26.0302 14.8054 26.0302 15.4326 25.2889C15.9901 24.5475 15.9901 23.4766 15.3629 22.7353L14.8751 22.241C14.5964 21.9115 14.1085 21.9939 13.8995 22.3234L12.8541 23.8885C12.645 24.218 12.645 24.7122 12.9238 25.0417L13.2722 25.3712ZM14.9448 29.2428C14.666 28.9957 14.2479 28.9957 14.0388 29.3252L13.1329 30.7256C12.9238 31.0551 12.9238 31.4669 13.2026 31.7964L13.551 32.1259C14.1085 32.7849 15.0145 32.7026 15.5023 32.0436C15.9901 31.3846 15.9901 30.3137 15.4326 29.7371L14.9448 29.2428ZM14.666 35.7504C14.3873 35.5033 14.0388 35.5033 13.8298 35.8328L12.9238 37.1508C12.7147 37.4803 12.7844 37.8921 12.9935 38.1393L13.2722 38.4688C13.8298 39.0454 14.666 39.0454 15.1539 38.3864C15.6417 37.7274 15.6417 36.7389 15.0842 36.1623L14.666 35.7504Z" fill="#151886" fill-opacity="0.7"/>
<path d="M56.7143 34.8644C56.7143 16.679 44.2422 1.93687 28.8571 1.93687C13.4721 1.93687 1 16.679 1 34.8644C1 53.0497 13.4721 67.7919 28.8571 67.7919C44.2422 67.7919 56.7143 53.0497 56.7143 34.8644Z" stroke="#0308B5" stroke-width="2"/>
<path d="M46.8823 9.68465L7.55457 56.1705" stroke="#0308B5" stroke-width="2"/>
</svg>
