<svg width="60" height="62" viewBox="0 0 60 62" fill="none" xmlns="http://www.w3.org/2000/svg">
<path d="M39.9285 8.49983V56.0585C39.9285 58.2847 38.257 60.1061 36.2142 60.1061H4.5499C2.50704 60.1061 0.928467 58.2847 0.928467 56.0585V8.49983C0.928467 6.27367 2.5999 4.55347 4.5499 4.55347H36.2142C38.257 4.55347 39.9285 6.37486 39.9285 8.49983Z" fill="white"/>
<path d="M29.6213 2.63086V6.47603C29.6213 7.38673 28.9713 8.09505 28.1356 8.09505H12.7213C11.8856 8.09505 11.2356 7.38673 11.2356 6.47603V2.63086C11.2356 1.72016 11.8856 1.01184 12.7213 1.01184H28.2285C28.9713 1.01184 29.6213 1.72016 29.6213 2.63086Z" fill="#3136DD"/>
<path d="M45.4071 60.0049C52.6381 60.0049 58.4999 53.6171 58.4999 45.7373C58.4999 37.8575 52.6381 31.4697 45.4071 31.4697C38.1761 31.4697 32.3142 37.8575 32.3142 45.7373C32.3142 53.6171 38.1761 60.0049 45.4071 60.0049Z" fill="#4DE2C9"/>
<path d="M45.4071 55.755C50.4842 55.755 54.5999 51.2699 54.5999 45.7373C54.5999 40.2047 50.4842 35.7196 45.4071 35.7196C40.33 35.7196 36.2142 40.2047 36.2142 45.7373C36.2142 51.2699 40.33 55.755 45.4071 55.755Z" fill="white"/>
<path d="M45.4071 48.0647C46.5354 48.0647 47.45 47.068 47.45 45.8386C47.45 44.6091 46.5354 43.6124 45.4071 43.6124C44.2789 43.6124 43.3643 44.6091 43.3643 45.8386C43.3643 47.068 44.2789 48.0647 45.4071 48.0647Z" fill="#3136DD"/>
<path d="M11.2357 36.6301H5.94287V42.3979H11.2357V36.6301Z" fill="#3136DD"/>
<path d="M11.2357 48.3682H5.94287V54.1359H11.2357V48.3682Z" fill="#FFCD7E"/>
<path d="M5.94285 31.672H23.0286C23.5857 31.672 23.9571 31.2673 23.9571 30.6601C23.9571 30.053 23.5857 29.6482 23.0286 29.6482H5.94285C5.38571 29.6482 5.01428 30.053 5.01428 30.6601C5.01428 31.2673 5.38571 31.672 5.94285 31.672ZM5.94285 26.0055H34.9143C35.4714 26.0055 35.8429 25.6007 35.8429 24.9936C35.8429 24.3864 35.4714 23.9817 34.9143 23.9817H5.94285C5.38571 23.9817 5.01428 24.3864 5.01428 24.9936C5.01428 25.6007 5.38571 26.0055 5.94285 26.0055ZM12.5357 14.4699H28.2286C28.7857 14.4699 29.1571 14.0652 29.1571 13.4581C29.1571 12.8509 28.7857 12.4462 28.2286 12.4462H12.5357C11.9786 12.4462 11.6071 12.8509 11.6071 13.4581C11.6071 14.0652 12.0714 14.4699 12.5357 14.4699ZM5.94285 20.2377H34.9143C35.4714 20.2377 35.8429 19.8329 35.8429 19.2258C35.8429 18.6187 35.4714 18.2139 34.9143 18.2139H5.94285C5.38571 18.2139 5.01428 18.6187 5.01428 19.2258C5.01428 19.8329 5.38571 20.2377 5.94285 20.2377Z" fill="#3136DD"/>
<path d="M54.4143 34.1006L54.9714 33.2911L55.5286 33.797C56.1786 34.2018 56.6428 33.9994 56.8286 33.5946C57.1071 33.1899 57.1071 32.4816 56.6428 32.178L54.1357 30.053C53.7643 29.7495 53.1143 29.7495 52.8357 30.2554C52.5571 30.6602 52.5571 31.3685 53.0214 31.6721L53.5786 32.178L52.9286 32.8863C50.9786 31.5709 48.75 30.6602 46.2428 30.4578V28.2316H48.2857C48.8428 28.2316 49.2143 27.8269 49.2143 27.2198C49.2143 26.6126 48.8428 26.2079 48.2857 26.2079H42.3428C41.7857 26.2079 41.4143 26.6126 41.4143 27.2198C41.4143 27.8269 41.7857 28.2316 42.3428 28.2316H44.3857V30.559C43.1786 30.6602 41.9714 30.8626 40.7643 31.3685V8.49985C40.7643 5.76776 38.7214 3.5416 36.1214 3.5416H30.4571V2.63091C30.4571 1.21426 29.3429 0 28.0429 0H12.7214C11.4214 0 10.3071 1.21426 10.3071 2.63091V3.5416H4.55C2.04286 3.5416 0 5.76776 0 8.60104V56.1597C0 58.8918 2.04286 61.2192 4.55 61.2192H36.2143C37.4214 61.2192 38.6286 60.7132 39.4643 59.8025C41.2286 60.7132 43.2714 61.2192 45.4071 61.2192C53.1143 61.118 59.4286 54.2371 59.4286 45.7373C59.4286 41.0826 57.4786 36.9339 54.4143 34.1006ZM12.1643 2.63091C12.1643 2.32734 12.4429 2.02377 12.7214 2.02377H28.2286C28.5071 2.02377 28.7857 2.32734 28.7857 2.63091V6.47608C28.7857 6.77964 28.5071 7.08321 28.2286 7.08321H12.7214C12.4429 7.08321 12.1643 6.77964 12.1643 6.47608V2.63091ZM36.2143 59.0942H4.55C3.06429 59.0942 1.85714 57.7787 1.85714 56.0585V8.49985C1.85714 6.88083 3.06429 5.56538 4.55 5.56538H10.2143V6.47608C10.2143 7.89272 11.3286 9.10698 12.6286 9.10698H28.1357C29.4357 9.10698 30.55 7.89272 30.55 6.47608V5.56538H36.2143C37.7 5.56538 39 6.88083 39 8.60104V32.2792C38.6286 32.4816 38.1643 32.7851 37.7929 32.9875L37.2357 32.178L37.7929 31.6721C38.1643 31.3685 38.2571 30.6602 37.9786 30.2554C37.7 29.8507 37.05 29.7495 36.6786 30.053L34.1714 32.178C33.8 32.4816 33.7071 33.1899 33.9857 33.5946C34.2643 33.9994 34.6357 34.1006 35.2857 33.797L35.8429 33.2911L36.4 34.1006C33.3357 36.9339 31.3857 41.0826 31.3857 45.7373C31.3857 51.1003 33.8929 55.8562 37.7929 58.5883C37.2357 58.8918 36.7714 59.0942 36.2143 59.0942ZM45.4071 59.0942C38.7214 59.0942 33.2429 53.1241 33.2429 45.8385C33.2429 38.5529 38.7214 32.5828 45.4071 32.5828C52.0929 32.4816 57.5714 38.4517 57.5714 45.7373C57.5714 53.0229 52.0929 59.0942 45.4071 59.0942Z" fill="#3136DD"/>
<path d="M45.4071 34.7078C39.8356 34.7078 35.2856 39.666 35.2856 45.7373C35.2856 51.8087 39.8356 56.7669 45.4071 56.7669C50.9785 56.7669 55.5285 51.8087 55.5285 45.7373C55.5285 39.666 50.9785 34.7078 45.4071 34.7078ZM45.4071 54.7431C40.8571 54.7431 37.1428 50.7968 37.1428 45.7373C37.1428 40.6779 40.8571 36.7315 45.4071 36.7315C49.9571 36.7315 53.6714 40.7791 53.6714 45.7373C53.6714 50.6956 49.9571 54.7431 45.4071 54.7431Z" fill="#3136DD"/>
<path d="M49.2143 40.2731L46.7071 43.0052C46.3357 42.8028 45.8714 42.6004 45.4071 42.6004C43.8286 42.6004 42.4357 44.0171 42.4357 45.8385C42.4357 46.3444 42.5286 46.8504 42.7143 47.2551L42.4357 47.5587C42.0643 47.9634 42.0643 48.5706 42.4357 48.9753C42.8071 49.3801 43.3643 49.3801 43.7357 48.9753L44.0143 48.6718C44.3857 48.8741 44.85 49.0765 45.3143 49.0765C46.8928 49.0765 48.2857 47.6599 48.2857 45.8385C48.2857 45.3325 48.1928 44.8266 48.0071 44.4218L50.5143 41.6897C50.8857 41.285 50.8857 40.6778 50.5143 40.2731C50.2357 39.8683 49.5857 39.8683 49.2143 40.2731ZM45.4071 46.9515C44.85 46.9515 44.2928 46.4456 44.2928 45.7373C44.2928 45.029 44.7571 44.523 45.4071 44.523C46.0571 44.523 46.5214 45.029 46.5214 45.7373C46.5214 46.4456 45.9643 46.9515 45.4071 46.9515ZM11.2357 35.6184H5.94285C5.38571 35.6184 5.01428 36.0232 5.01428 36.6303V42.3981C5.01428 43.0052 5.38571 43.4099 5.94285 43.4099H11.2357C11.7929 43.4099 12.1643 43.0052 12.1643 42.3981V36.6303C12.1643 36.1244 11.7 35.6184 11.2357 35.6184ZM10.3071 41.3862H6.87142V37.6422H10.3071V41.3862ZM11.2357 47.3563H5.94285C5.38571 47.3563 5.01428 47.7611 5.01428 48.3682V54.1359C5.01428 54.7431 5.38571 55.1478 5.94285 55.1478H11.2357C11.7929 55.1478 12.1643 54.7431 12.1643 54.1359V48.3682C12.1643 47.8622 11.7 47.3563 11.2357 47.3563ZM10.3071 53.1241H6.87142V49.3801H10.3071V53.1241ZM15.5071 36.8327C14.95 36.8327 14.5786 37.2374 14.5786 37.8446C14.5786 38.4517 14.95 38.8564 15.5071 38.8564H19.7786C20.3357 38.8564 20.7071 38.4517 20.7071 37.8446C20.7071 37.2374 20.3357 36.8327 19.7786 36.8327H15.5071ZM26.7428 40.1719H15.5071C14.95 40.1719 14.5786 40.5767 14.5786 41.1838C14.5786 41.7909 14.95 42.1957 15.5071 42.1957H26.7428C27.3 42.1957 27.6714 41.7909 27.6714 41.1838C27.6714 40.5767 27.2071 40.1719 26.7428 40.1719ZM15.5071 50.5943H19.7786C20.3357 50.5943 20.7071 50.1896 20.7071 49.5824C20.7071 48.9753 20.3357 48.5706 19.7786 48.5706H15.5071C14.95 48.5706 14.5786 48.9753 14.5786 49.5824C14.5786 50.1896 14.95 50.5943 15.5071 50.5943ZM26.7428 51.9098H15.5071C14.95 51.9098 14.5786 52.3145 14.5786 52.9217C14.5786 53.5288 14.95 53.9336 15.5071 53.9336H26.7428C27.3 53.9336 27.6714 53.5288 27.6714 52.9217C27.6714 52.3145 27.2071 51.9098 26.7428 51.9098Z" fill="#3136DD"/>
</svg>
