<svg width="91" height="91" viewBox="0 0 91 91" fill="none" xmlns="http://www.w3.org/2000/svg">
<path d="M51.8245 35.9796L36.9082 51.7453L40.7452 55.8008L55.6615 40.0351L51.8245 35.9796Z" fill="#61485D"/>
<path d="M37.6164 79.0711C37.7504 78.9362 37.8564 78.7737 37.9287 78.5937C38.0011 78.4137 38.0379 78.22 38.0367 78.0244C38.0379 77.8289 38.0011 77.6351 37.9287 77.4551C37.8564 77.2751 37.7504 77.1127 37.6164 76.9778L16.6977 54.8538C16.5689 54.7149 16.4149 54.6051 16.2447 54.5311C16.0744 54.4572 15.8915 54.4206 15.7075 54.4237C15.5234 54.4206 15.3408 54.4572 15.1706 54.5311C15.0003 54.6051 14.846 54.7149 14.7172 54.8538L11.4072 58.3524C11.2757 58.4885 11.1718 58.6515 11.1018 58.8315C11.0319 59.0114 10.9973 59.2045 11.0002 59.399C10.9973 59.5936 11.0319 59.7867 11.1018 59.9666C11.1718 60.1465 11.2757 60.3096 11.4072 60.4457L32.3391 82.5697C32.468 82.7086 32.6223 82.8184 32.7926 82.8924C32.9628 82.9663 33.1454 83.0029 33.3294 82.9998C33.6996 82.9965 34.0543 82.8424 34.3197 82.5697L37.6164 79.0711Z" fill="#61485D"/>
<path d="M50.9107 73.3358C50.9081 72.884 50.7378 72.4514 50.4361 72.1314L21.2832 41.3185C21.1325 41.1576 20.9527 41.0302 20.7546 40.944C20.5565 40.8578 20.3441 40.8145 20.1299 40.8166C19.9178 40.8148 19.7074 40.8583 19.5116 40.9445C19.3158 41.0308 19.1384 41.158 18.9903 41.3185L15.4634 45.0608C15.3102 45.2163 15.189 45.4035 15.1074 45.6107C15.0257 45.818 14.9851 46.0407 14.9885 46.2652C14.9867 46.4894 15.0281 46.7117 15.1097 46.9186C15.1913 47.1256 15.3115 47.313 15.4634 47.4696L44.6163 78.2825C44.7644 78.443 44.9418 78.5702 45.1376 78.6565C45.3334 78.7427 45.5438 78.7862 45.7559 78.7844C45.9683 78.7879 46.1789 78.7452 46.3749 78.6588C46.571 78.5725 46.7481 78.4444 46.8952 78.2825L50.4361 74.5402C50.5867 74.3827 50.7063 74.1951 50.7878 73.9884C50.8693 73.7816 50.9109 73.5598 50.9107 73.3358Z" fill="#61485D"/>
<path d="M75.3019 37.146C75.4307 37.285 75.5851 37.3948 75.7553 37.4688C75.9256 37.5427 76.1082 37.5792 76.2922 37.5762C76.4762 37.5792 76.6592 37.5427 76.8294 37.4688C76.9997 37.3948 77.154 37.285 77.2828 37.146L80.5928 33.6475C80.7243 33.5113 80.8282 33.3483 80.8981 33.1684C80.9681 32.9884 81.0027 32.7953 80.9998 32.6008C81.0027 32.4063 80.9681 32.2132 80.8981 32.0332C80.8282 31.8533 80.7243 31.6903 80.5928 31.5541L59.6741 9.44451C59.5464 9.30296 59.393 9.1905 59.2227 9.11406C59.0524 9.03762 58.8688 8.99882 58.6838 9.00003C58.4988 8.99882 58.3156 9.03762 58.1453 9.11406C57.975 9.1905 57.8212 9.30296 57.6935 9.44451L54.3836 12.9287C54.2521 13.0649 54.1482 13.2279 54.0782 13.4078C54.0082 13.5878 53.9736 13.7809 53.9765 13.9754C53.9736 14.1699 54.0082 14.363 54.0782 14.543C54.1482 14.7229 54.2521 14.886 54.3836 15.0221L75.3019 37.146Z" fill="#61485D"/>
<path d="M76.5505 46.9534C76.8473 46.6311 77.0126 46.1988 77.0115 45.749C77.0147 45.2946 76.8493 44.857 76.5505 44.5303L47.384 13.66C47.235 13.5008 47.0574 13.3745 46.8617 13.2883C46.6661 13.2022 46.4563 13.1579 46.2444 13.1581C45.8169 13.1608 45.4075 13.3411 45.1047 13.66L41.9441 17.0008C41.7953 17.159 41.6779 17.3471 41.5987 17.5539C41.5195 17.7607 41.48 17.9821 41.4828 18.2052C41.4802 18.6553 41.6461 19.0882 41.9441 19.4096L71.1106 50.2226C71.2578 50.3844 71.4349 50.5125 71.6309 50.5989C71.827 50.6852 72.0376 50.7279 72.2499 50.7244C72.4621 50.7263 72.6724 50.6827 72.8683 50.5965C73.0641 50.5103 73.2414 50.3831 73.3896 50.2226L76.5505 46.9534Z" fill="#61485D"/>
</svg>
