<svg width="74" height="89" viewBox="0 0 74 89" fill="none" xmlns="http://www.w3.org/2000/svg">
<path d="M58.4981 65.1674C57.3058 65.4969 56.0809 65.6673 54.8507 65.6749C50.902 65.6749 47.1151 63.9682 44.3229 60.9303C41.5308 57.8923 39.9622 53.7718 39.9622 49.4755C39.9606 47.3477 40.3447 45.2405 41.0924 43.2743C41.84 41.3082 42.9366 39.5216 44.3194 38.017C45.7022 36.5124 47.3443 35.3194 49.1513 34.5059C50.9584 33.6924 52.895 33.2745 54.8507 33.2762C56.0813 33.2773 57.3069 33.4478 58.4981 33.7837V23.5566C58.5009 22.2163 58.0148 20.9295 57.1466 19.9785C56.7156 19.5073 56.2031 19.1336 55.6387 18.879C55.0742 18.6245 54.469 18.4939 53.858 18.4952H50.4619C50.4619 18.4952 50.4619 18.4951 50.4619 18.5862V23.6998C50.4399 24.9962 49.9469 26.2304 49.0909 27.1326C48.2349 28.0347 47.0853 28.5314 45.8937 28.5139H27.0348C26.4443 28.5243 25.8576 28.408 25.3085 28.1717C24.7593 27.9353 24.2583 27.5835 23.8341 27.1364C23.4099 26.6893 23.0708 26.1559 22.8362 25.5662C22.6015 24.9765 22.4759 24.3422 22.4665 23.6998V18.5862C22.4665 18.5862 22.4665 18.5862 22.4665 18.4952H18.6518C18.0406 18.4925 17.4349 18.6223 16.8703 18.877C16.3056 19.1317 15.7934 19.5061 15.3632 19.9785C14.4907 20.9273 14.0004 22.2144 14 23.5566V71.6992C14.0004 73.0414 14.4907 74.3285 15.3632 75.2774C15.7934 75.7498 16.3056 76.1242 16.8703 76.3789C17.4349 76.6335 18.0406 76.7634 18.6518 76.7607H53.8341C54.4451 76.7619 55.0503 76.6314 55.6147 76.3768C56.1792 76.1222 56.6917 75.7486 57.1227 75.2774C57.9908 74.3264 58.477 73.0396 58.4742 71.6992L58.4981 65.1674ZM20.3618 33.2762H38.4434C38.9192 33.2762 39.3753 33.4818 39.7117 33.8478C40.0481 34.2139 40.2372 34.7103 40.2372 35.2279C40.2372 35.7456 40.0481 36.242 39.7117 36.608C39.3753 36.974 38.9192 37.1797 38.4434 37.1797H20.3618C19.8861 37.1797 19.4299 36.974 19.0935 36.608C18.7571 36.242 18.568 35.7456 18.568 35.2279C18.5774 34.7171 18.7707 34.2307 19.1061 33.8731C19.4415 33.5155 19.8922 33.3152 20.3618 33.3153V33.2762ZM20.3618 46.3917H29.4026C29.8784 46.3917 30.3348 46.5975 30.6712 46.9635C31.0076 47.3296 31.1964 47.8258 31.1964 48.3435C31.1964 48.8611 31.0076 49.3575 30.6712 49.7236C30.3348 50.0896 29.8784 50.2952 29.4026 50.2952H20.3618C19.8861 50.2952 19.4299 50.0896 19.0935 49.7236C18.7571 49.3575 18.568 48.8611 18.568 48.3435C18.5774 47.8326 18.7707 47.3463 19.1061 46.9886C19.4415 46.631 19.8922 46.4307 20.3618 46.4308V46.3917ZM38.4434 63.4109H20.3618C19.8861 63.4109 19.4299 63.2053 19.0935 62.8393C18.7571 62.4732 18.568 61.9768 18.568 61.4592C18.568 60.9415 18.7571 60.4451 19.0935 60.0791C19.4299 59.7131 19.8861 59.5074 20.3618 59.5074H38.4434C38.9192 59.5074 39.3753 59.7131 39.7117 60.0791C40.0481 60.4451 40.2372 60.9415 40.2372 61.4592C40.242 61.7187 40.1991 61.9767 40.1111 62.2181C40.0231 62.4594 39.8916 62.6791 39.7245 62.8645C39.5575 63.0499 39.3583 63.1971 39.1383 63.2976C38.9183 63.3982 38.682 63.45 38.4434 63.45V63.4109Z" fill="#212853" fill-opacity="0.8"/>
<path d="M27.824 17.0248C27.3919 16.9924 26.9655 17.1461 26.6366 17.4529C26.3077 17.7596 26.1027 18.1947 26.0661 18.6643V23.7777C26.0874 24.039 26.2022 24.2808 26.3855 24.4511C26.5689 24.6214 26.8063 24.7067 27.0468 24.6886H45.9056C46.1461 24.7067 46.3836 24.6214 46.5669 24.4511C46.7503 24.2808 46.865 24.039 46.8863 23.7777V18.6643C46.8497 18.1947 46.6447 17.7596 46.3158 17.4529C45.9869 17.1461 45.5603 16.9924 45.1281 17.0248C44.6941 17.0571 44.2662 16.9016 43.9369 16.5921C43.6077 16.2827 43.4039 15.8443 43.3702 15.3723V12.9131C43.3519 12.653 43.2399 12.4112 43.0584 12.2406C42.877 12.07 42.6411 11.9844 42.4018 12.0024H30.5506C30.3101 11.9843 30.0727 12.0695 29.8893 12.2398C29.706 12.4101 29.5912 12.6519 29.5699 12.9131V15.3723C29.5393 15.8431 29.3384 16.2816 29.0111 16.5914C28.6838 16.9011 28.2568 17.057 27.824 17.0248Z" fill="#212853" fill-opacity="0.8"/>
<path d="M62.839 58.2063C63.8917 57.0677 64.7267 55.7133 65.2952 54.2214C65.8638 52.7295 66.1548 51.1296 66.1516 49.5146C66.1557 47.8974 65.865 46.2954 65.2964 44.8012C64.7278 43.3071 63.8926 41.9505 62.839 40.8099C61.7915 39.6669 60.5463 38.761 59.1752 38.1446C57.8041 37.5282 56.3342 37.2135 54.8507 37.2188C53.3673 37.2149 51.898 37.5302 50.5271 38.1465C49.1561 38.7628 47.9107 39.668 46.8624 40.8099C45.8109 41.9523 44.9769 43.3092 44.4085 44.803C43.84 46.2967 43.5483 47.8978 43.5498 49.5146C43.5492 51.1292 43.8415 52.7281 44.4099 54.2196C44.9784 55.7111 45.8118 57.066 46.8624 58.2063C47.9101 59.35 49.155 60.2571 50.5259 60.8756C51.8968 61.4942 53.3666 61.8119 54.8507 61.8105C56.335 61.8133 57.805 61.4963 59.1761 60.8777C60.5471 60.2591 61.7921 59.3512 62.839 58.2063ZM61.2487 46.2877L54.1929 54.6412C53.8772 55.0177 53.4379 55.2437 52.9702 55.2705C52.5024 55.2973 52.0437 55.1226 51.6934 54.7843L48.7517 51.9738C48.5725 51.8058 48.426 51.6008 48.3204 51.3705C48.2148 51.1403 48.1524 50.8895 48.1368 50.6327C48.1212 50.376 48.1528 50.1185 48.2296 49.8751C48.3065 49.6318 48.427 49.4074 48.5844 49.2153C48.8976 48.8285 49.3387 48.5924 49.8115 48.5582C50.2842 48.5241 50.75 48.6948 51.1075 49.0331L52.734 50.5946L58.6056 43.6464C58.7649 43.4575 58.9571 43.3047 59.1708 43.1965C59.3845 43.0884 59.6156 43.0271 59.8511 43.0163C60.0865 43.0054 60.3214 43.0452 60.5427 43.1332C60.7641 43.2212 60.9674 43.3558 61.1409 43.5293C61.3145 43.7027 61.455 43.9116 61.5544 44.1441C61.6537 44.3766 61.7099 44.6281 61.7199 44.8843C61.7299 45.1405 61.6934 45.3962 61.6125 45.637C61.5316 45.8778 61.4081 46.099 61.2487 46.2877Z" fill="#212853" fill-opacity="0.8"/>
</svg>
