<svg width="55" height="52" viewBox="0 0 55 52" fill="none" xmlns="http://www.w3.org/2000/svg">
<g clip-path="url(#clip0_476_28000)">
<path d="M37.7396 4.3059H36.3653V2.15295C36.3653 0.968828 35.5296 0 34.5081 0C33.4867 0 32.651 0.968828 32.651 2.15295V4.3059H16.8281V2.15295C16.8281 0.968828 15.9924 0 14.971 0C13.9496 0 13.1139 0.968828 13.1139 2.15295V4.3059H11.7396C6.61386 4.3059 2.45386 9.12851 2.45386 15.0707V40.9061C2.45386 46.8482 6.61386 51.6708 11.7396 51.6708H37.7396C42.8653 51.6708 47.0253 46.8482 47.0253 40.9061V15.0707C47.0253 9.12851 42.8653 4.3059 37.7396 4.3059ZM43.311 40.9061C43.311 44.4584 40.8039 47.3649 37.7396 47.3649H11.7396C8.67529 47.3649 6.16814 44.4584 6.16814 40.9061V15.0707C6.16814 11.5183 8.67529 8.6118 11.7396 8.6118H13.1139V10.7863C13.1139 11.9704 13.9496 12.9392 14.971 12.9392C15.9924 12.9392 16.8281 11.9704 16.8281 10.7863V8.6118H32.651V10.7863C32.651 11.9704 33.4867 12.9392 34.5081 12.9392C35.5296 12.9392 36.3653 11.9704 36.3653 10.7863V8.6118H37.7396C40.8039 8.6118 43.311 11.5183 43.311 15.0707V40.9061Z" fill="#2C47A8"/>
<path d="M36.161 17.2236H13.1882C12.1668 17.2236 11.3311 18.1925 11.3311 19.3766C11.3311 20.5607 12.1668 21.5295 13.1882 21.5295H36.161C37.1825 21.5295 38.0182 20.5607 38.0182 19.3766C38.0182 18.1925 37.1825 17.2236 36.161 17.2236Z" fill="#2C47A8"/>
<path fill-rule="evenodd" clip-rule="evenodd" d="M32.0076 30.1545C31.9934 30.1543 31.9791 30.1543 31.9648 30.1545C31.9187 30.1604 31.8728 30.1681 31.8272 30.1776C31.7904 30.1842 31.7539 30.1919 31.7175 30.2008C31.6932 30.208 31.669 30.216 31.645 30.2242C31.6325 30.2305 31.6201 30.2368 31.6078 30.2434C31.5491 30.263 31.4914 30.2857 31.4349 30.3113C31.0683 30.4758 30.7622 30.759 30.562 31.1187C30.3617 31.4784 30.2779 31.8956 30.3228 32.3088V39.6248C30.3073 39.7684 30.3073 39.9133 30.3228 40.0569V47.3729C30.2847 47.7632 30.3612 48.1565 30.5422 48.5005C30.5706 48.5577 30.6016 48.6131 30.6352 48.667C30.6694 48.7193 30.706 48.7697 30.7449 48.8182C30.7745 48.8582 30.8055 48.8971 30.8379 48.9345C30.8501 48.9476 30.8625 48.9606 30.8751 48.9733C30.9011 48.9987 30.9277 49.0231 30.9551 49.0469C30.9722 49.0627 30.9895 49.0781 31.0071 49.0932C31.0164 49.1011 31.0257 49.109 31.035 49.1166C31.0752 49.1514 31.1168 49.1844 31.1596 49.2155C31.1689 49.2221 31.1782 49.2283 31.1875 49.2347C31.2819 49.2968 31.3815 49.3501 31.4851 49.3936C31.495 49.3937 31.5049 49.3937 31.5148 49.3936H31.5223H31.5297C31.7776 49.4909 32.0427 49.5319 32.307 49.5137H43.3085C43.8017 49.5137 44.2747 49.3097 44.6234 48.9464C44.9722 48.583 45.1681 48.0901 45.1681 47.5763C45.1681 47.0624 44.9722 46.5697 44.6234 46.2064C44.2747 45.843 43.8017 45.6388 43.3085 45.6388H34.042V41.7657H39.5893C40.0825 41.7657 40.5555 41.5616 40.9042 41.1983C41.253 40.8349 41.4489 40.342 41.4489 39.8282C41.4489 39.3143 41.253 38.8217 40.9042 38.4583C40.5555 38.095 40.0825 37.8907 39.5893 37.8907H34.042V34.0178H43.3085C43.8017 34.0178 44.2747 33.8136 44.6234 33.4502C44.9722 33.0869 45.1681 32.5942 45.1681 32.0804C45.1681 31.5665 44.9722 31.0736 44.6234 30.7103C44.2747 30.3469 43.8017 30.1429 43.3085 30.1429H32.3368C32.2903 30.1411 32.2438 30.1411 32.1973 30.1429C32.183 30.1427 32.1688 30.1427 32.1545 30.1429C32.1056 30.1409 32.0566 30.1409 32.0076 30.1429V30.1545Z" fill="#2C47A8"/>
<path fill-rule="evenodd" clip-rule="evenodd" d="M46.8647 30.1545C46.8505 30.1543 46.8362 30.1543 46.822 30.1545C46.7758 30.1604 46.7299 30.1681 46.6843 30.1776C46.6476 30.1842 46.611 30.1919 46.5746 30.2008C46.5503 30.208 46.5261 30.216 46.5021 30.2242C46.4896 30.2305 46.4772 30.2368 46.4649 30.2434C46.4062 30.263 46.3485 30.2857 46.292 30.3113C45.9254 30.4758 45.6194 30.759 45.4191 31.1187C45.2188 31.4784 45.135 31.8956 45.1799 32.3088V39.6248C45.1645 39.7684 45.1645 39.9133 45.1799 40.0569V47.3729C45.1418 47.7632 45.2183 48.1565 45.3994 48.5005C45.4277 48.5577 45.4587 48.6131 45.4923 48.667C45.5265 48.7193 45.5631 48.7697 45.6021 48.8182C45.6316 48.8582 45.6626 48.8971 45.695 48.9345C45.7073 48.9476 45.7197 48.9606 45.7322 48.9733C45.7582 48.9987 45.7849 49.0231 45.8122 49.0469C45.8293 49.0627 45.8466 49.0781 45.8643 49.0932C45.8735 49.1011 45.8828 49.109 45.8922 49.1166C45.9323 49.1514 45.9739 49.1844 46.0167 49.2155C46.026 49.2221 46.0353 49.2283 46.0446 49.2347C46.139 49.2968 46.2386 49.3501 46.3422 49.3936C46.3521 49.3937 46.362 49.3937 46.3719 49.3936H46.3794H46.3868C46.6347 49.4909 46.8998 49.5319 47.1641 49.5137H58.1656C58.6588 49.5137 59.1318 49.3097 59.4806 48.9464C59.8293 48.583 60.0252 48.0901 60.0252 47.5763C60.0252 47.0624 59.8293 46.5697 59.4806 46.2064C59.1318 45.843 58.6588 45.6388 58.1656 45.6388H48.8992V41.7657H54.4464C54.9396 41.7657 55.4126 41.5616 55.7613 41.1983C56.1101 40.8349 56.306 40.342 56.306 39.8282C56.306 39.3143 56.1101 38.8217 55.7613 38.4583C55.4126 38.095 54.9396 37.8907 54.4464 37.8907H48.8992V34.0178H58.1656C58.6588 34.0178 59.1318 33.8136 59.4806 33.4502C59.8293 33.0869 60.0252 32.5942 60.0252 32.0804C60.0252 31.5665 59.8293 31.0736 59.4806 30.7103C59.1318 30.3469 58.6588 30.1429 58.1656 30.1429H47.1939C47.1474 30.1411 47.1009 30.1411 47.0544 30.1429C47.0402 30.1427 47.0259 30.1427 47.0116 30.1429C46.9627 30.1409 46.9137 30.1409 46.8647 30.1429V30.1545Z" fill="#2C47A8"/>
<path fill-rule="evenodd" clip-rule="evenodd" d="M15.4243 27.9883C14.9328 27.9979 14.4648 28.2332 14.1229 28.6425C13.781 29.0518 13.5931 29.6017 13.6006 30.1714V47.3218C13.5948 47.828 13.7432 48.3204 14.0197 48.7122C14.2962 49.1041 14.6831 49.3703 15.1123 49.464C15.1147 49.464 15.1172 49.464 15.1197 49.464C15.1787 49.4766 15.2382 49.486 15.298 49.492C15.3005 49.492 15.3029 49.492 15.3054 49.492C15.3104 49.492 15.3153 49.492 15.3203 49.492C15.623 49.524 15.9278 49.4692 16.208 49.3326C16.2649 49.3064 16.3207 49.277 16.3751 49.2444C16.4835 49.1739 16.5856 49.0909 16.6797 48.9968C16.7276 48.9514 16.7734 48.9032 16.8171 48.8525C16.8666 48.7939 16.9131 48.7321 16.9564 48.6674L21.0291 42.3592L25.0963 48.6566C25.3693 49.077 25.7657 49.3669 26.2107 49.4712C26.6556 49.5756 27.1181 49.4872 27.5106 49.2228C27.6135 49.1541 27.7105 49.0741 27.8003 48.9839C27.804 48.981 27.8077 48.9781 27.8114 48.9752C27.8151 48.971 27.8189 48.9667 27.8226 48.9623C27.8578 48.9258 27.8919 48.8878 27.9247 48.8482C27.9322 48.8404 27.9396 48.8325 27.947 48.8245C27.9654 48.8013 27.9833 48.7776 28.0008 48.7535C28.0033 48.7506 28.0058 48.7478 28.0083 48.7449C28.0452 48.6916 28.0799 48.6362 28.1123 48.5791C28.3356 48.2113 28.4538 47.7715 28.4503 47.3218V30.1714C28.454 29.8835 28.4079 29.5976 28.3146 29.3308C28.2213 29.064 28.0827 28.8216 27.9071 28.618C27.7315 28.4144 27.5224 28.2538 27.2922 28.1456C27.062 28.0374 26.8155 27.9839 26.5671 27.9883C26.0757 27.9979 25.6077 28.2332 25.2657 28.6425C24.9238 29.0518 24.736 29.6017 24.7434 30.1714V40.9361L22.5093 37.4785C22.3266 37.1872 22.0839 36.9538 21.8032 36.7996C21.5225 36.6453 21.2129 36.5753 20.9028 36.5958C20.5761 36.6185 20.2604 36.741 19.9878 36.9508C19.7151 37.1607 19.4951 37.4504 19.3503 37.7907L17.3074 40.949V30.1714C17.3112 29.8835 17.265 29.5976 17.1717 29.3308C17.0784 29.064 16.9398 28.8216 16.7642 28.618C16.5886 28.4144 16.3795 28.2538 16.1493 28.1456C15.9192 28.0374 15.6726 27.9839 15.4243 27.9883Z" fill="#2C47A8"/>
</g>
<defs>
<clipPath id="clip0_476_28000">
<rect width="54.4" height="51.6708" fill="white"/>
</clipPath>
</defs>
</svg>
